<?xml version="1.0" encoding="utf-8"?>
<!-- Generator: Adobe Illustrator 16.0.0, SVG Export Plug-In . SVG Version: 6.00 Build 0)  -->
<!DOCTYPE svg PUBLIC "-//W3C//DTD SVG 1.1//EN" "http://www.w3.org/Graphics/SVG/1.1/DTD/svg11.dtd">
<svg version="1.1" id="Layer_1" xmlns="http://www.w3.org/2000/svg" xmlns:xlink="http://www.w3.org/1999/xlink" x="0px" y="0px"
	 width="77.333px" height="77.333px" viewBox="0 0 77.333 77.333" enable-background="new 0 0 77.333 77.333" xml:space="preserve">
<g>
	<path d="M3.805,17.271h16.293c2.142,0,4.174,0.208,6.097,0.624c1.921,0.416,3.605,1.11,5.054,2.082s2.596,2.279,3.449,3.924
		c0.854,1.646,1.279,3.697,1.279,6.155c0,2.974-0.772,5.501-2.32,7.582c-1.545,2.081-3.806,3.4-6.778,3.954l10.702,17.782h-11.12
		l-8.801-16.83h-4.579v16.83H3.805V17.271z M13.082,34.694h5.472c0.831,0,1.713-0.03,2.646-0.089
		c0.931-0.06,1.774-0.238,2.528-0.535c0.751-0.298,1.376-0.763,1.873-1.397s0.743-1.526,0.743-2.677c0-1.07-0.218-1.922-0.655-2.557
		c-0.437-0.634-0.99-1.12-1.663-1.458c-0.675-0.335-1.448-0.563-2.32-0.684c-0.873-0.117-1.725-0.179-2.558-0.179h-6.066V34.694z"/>
	<path d="M73.622,56.638c-2.459,1.389-5.007,2.368-7.644,2.943s-5.322,0.863-8.058,0.863c-3.21,0-6.156-0.545-8.83-1.636
		c-2.677-1.09-4.967-2.616-6.87-4.579c-1.904-1.964-3.39-4.302-4.459-7.017c-1.071-2.716-1.607-5.681-1.607-8.892
		s0.536-6.164,1.607-8.86c1.07-2.695,2.555-5.025,4.459-6.987c1.903-1.962,4.193-3.499,6.87-4.609
		c2.674-1.109,5.62-1.664,8.83-1.664c6.263,0,11.319,1.942,15.165,5.827l-2.854,2.975c-0.636-0.754-1.419-1.458-2.35-2.112
		c-0.934-0.653-1.942-1.209-3.034-1.665c-1.091-0.456-2.229-0.812-3.42-1.069c-1.188-0.258-2.357-0.388-3.508-0.388
		c-2.736,0-5.204,0.476-7.404,1.428c-2.199,0.951-4.073,2.26-5.619,3.924c-1.547,1.666-2.735,3.628-3.57,5.888
		c-0.831,2.26-1.248,4.698-1.248,7.314c0,2.617,0.417,5.056,1.248,7.314c0.834,2.262,2.022,4.223,3.57,5.888
		c1.545,1.665,3.419,2.975,5.619,3.925c2.2,0.951,4.668,1.428,7.404,1.428c2.261,0,4.38-0.178,6.364-0.535
		c1.98-0.356,3.785-1.011,5.41-1.963V40.225H59.587v-3.567h14.035V56.638z"/>
</g>
</svg>
